<svg xmlns="http://www.w3.org/2000/svg" viewBox="0 0 128 128" shape-rendering="crispEdges">
  <rect width="128" height="128" fill="#111c24"/>
  <rect x="18" y="88" width="92" height="8" fill="#0a151b"/>
  <rect x="26" y="96" width="76" height="8" fill="#0a151b"/>

  <rect x="30" y="22" width="18" height="84" fill="#8a3d2f"/>
  <rect x="48" y="22" width="58" height="18" fill="#8a3d2f"/>
  <rect x="48" y="55" width="48" height="18" fill="#8a3d2f"/>
  <rect x="48" y="88" width="58" height="18" fill="#8a3d2f"/>

  <rect x="22" y="14" width="18" height="84" fill="#cf7a64"/>
  <rect x="40" y="14" width="58" height="18" fill="#cf7a64"/>
  <rect x="40" y="47" width="48" height="18" fill="#cf7a64"/>
  <rect x="40" y="80" width="58" height="18" fill="#cf7a64"/>

  <rect x="30" y="22" width="12" height="72" fill="#ffb45d"/>
  <rect x="42" y="22" width="48" height="12" fill="#ffb45d"/>
  <rect x="42" y="51" width="38" height="12" fill="#ffb45d"/>
  <rect x="42" y="84" width="48" height="12" fill="#ffb45d"/>

  <rect x="30" y="22" width="8" height="8" fill="#fdf6e3"/>
  <rect x="42" y="22" width="32" height="8" fill="#fdf6e3"/>
  <rect x="42" y="51" width="24" height="8" fill="#fdf6e3"/>
  <rect x="42" y="84" width="32" height="8" fill="#fdf6e3"/>

  <rect x="18" y="14" width="4" height="84" fill="#2e6070"/>
  <rect x="22" y="10" width="76" height="4" fill="#2e6070"/>
  <rect x="22" y="98" width="76" height="4" fill="#2e6070"/>
</svg>
