<svg xmlns="http://www.w3.org/2000/svg" viewBox="0 0 720 520" role="img" aria-labelledby="title desc">
  <title id="title">Pin Ebisu in Chrome</title>
  <desc id="desc">An illustration of the Chrome toolbar showing the extensions menu open with Ebisu pinned.</desc>
  <rect width="720" height="520" rx="28" fill="#0d171d"/>
  <rect x="24" y="24" width="672" height="472" rx="24" fill="#111c24" stroke="#2e6070"/>
  <rect x="24" y="24" width="672" height="54" rx="24" fill="#15222b" stroke="#2e6070"/>
  <circle cx="54" cy="51" r="7" fill="#2e6070"/>
  <circle cx="78" cy="51" r="7" fill="#2e6070"/>
  <circle cx="102" cy="51" r="7" fill="#2e6070"/>
  <rect x="136" y="37" width="368" height="28" rx="14" fill="#0f1b22" stroke="#2e6070"/>
  <text x="160" y="56" fill="#93a1a1" font-family="Inter, Arial, sans-serif" font-size="14">Search Google or type a URL</text>
  <rect x="554" y="37" width="32" height="28" rx="14" fill="#0f1b22" stroke="#2e6070"/>
  <text x="565" y="56" fill="#93a1a1" font-family="Inter, Arial, sans-serif" font-size="16">☆</text>
  <rect x="596" y="37" width="32" height="28" rx="14" fill="#cf7a64"/>
  <text x="607" y="56" fill="#111c24" font-family="Inter, Arial, sans-serif" font-size="16" font-weight="700">+</text>
  <rect x="484" y="92" width="176" height="208" rx="18" fill="#15222b" stroke="#2e6070"/>
  <text x="506" y="122" fill="#fdf6e3" font-family="Inter, Arial, sans-serif" font-size="15" font-weight="700">Extensions</text>
  <rect x="502" y="138" width="140" height="42" rx="12" fill="#0f1b22" stroke="#2e6070"/>
  <text x="518" y="164" fill="#93a1a1" font-family="Inter, Arial, sans-serif" font-size="13">Search extensions</text>
  <rect x="500" y="196" width="144" height="72" rx="16" fill="#0f1b22" stroke="#2e6070"/>
  <rect x="516" y="214" width="24" height="24" fill="#cf7a64"/>
  <rect x="519" y="217" width="18" height="18" fill="#ffb45d"/>
  <rect x="522" y="220" width="12" height="12" fill="#fdf6e3"/>
  <text x="552" y="222" fill="#fdf6e3" font-family="Inter, Arial, sans-serif" font-size="14" font-weight="700">Ebisu</text>
  <text x="552" y="242" fill="#93a1a1" font-family="Inter, Arial, sans-serif" font-size="12">ATS-source job search</text>
  <path d="M619 213l7 17h-9l2 16-8-14-7 6 3-15h-9z" fill="#cf7a64"/>
  <circle cx="523" cy="355" r="28" fill="#cf7a64" opacity="0.18"/>
  <circle cx="523" cy="355" r="22" fill="#cf7a64" opacity="0.28"/>
  <circle cx="523" cy="355" r="15" fill="#cf7a64"/>
  <text x="551" y="350" fill="#fdf6e3" font-family="Inter, Arial, sans-serif" font-size="15" font-weight="700">1. Click Extensions</text>
  <text x="551" y="372" fill="#93a1a1" font-family="Inter, Arial, sans-serif" font-size="13">Then pin Ebisu from the menu.</text>
  <path d="M470 156c-34 0-52 10-69 28-14 14-25 32-38 56" fill="none" stroke="#cf7a64" stroke-width="4" stroke-linecap="round" stroke-dasharray="8 10"/>
  <polygon points="356,230 367,249 345,248" fill="#cf7a64"/>
  <rect x="58" y="114" width="384" height="314" rx="20" fill="#0f1b22" stroke="#2e6070"/>
  <text x="82" y="148" fill="#fdf6e3" font-family="Inter, Arial, sans-serif" font-size="22" font-weight="800">Pin Ebisu so search is one click away</text>
  <text x="82" y="182" fill="#93a1a1" font-family="Inter, Arial, sans-serif" font-size="16">After install, open Chrome's Extensions menu, find Ebisu,</text>
  <text x="82" y="206" fill="#93a1a1" font-family="Inter, Arial, sans-serif" font-size="16">and click the pin icon to keep it in the toolbar.</text>
  <rect x="82" y="244" width="196" height="116" rx="18" fill="#111c24" stroke="#2e6070"/>
  <rect x="102" y="264" width="24" height="24" fill="#cf7a64"/>
  <rect x="105" y="267" width="18" height="18" fill="#ffb45d"/>
  <rect x="108" y="270" width="12" height="12" fill="#fdf6e3"/>
  <text x="140" y="281" fill="#fdf6e3" font-family="Inter, Arial, sans-serif" font-size="18" font-weight="800">Ebisu</text>
  <text x="102" y="312" fill="#93a1a1" font-family="Inter, Arial, sans-serif" font-size="14">ATS-source job search</text>
  <path d="M235 264l9 22h-12l2 20-10-17-9 7 3-18h-12z" fill="#cf7a64"/>
  <rect x="82" y="382" width="150" height="22" rx="11" fill="#15222b"/>
  <rect x="242" y="382" width="114" height="22" rx="11" fill="#15222b"/>
</svg>
